<?xml version="1.0" encoding="UTF-8"?><svg id="Layer_1" xmlns="http://www.w3.org/2000/svg" width="87.84mm" height="87.84mm" viewBox="0 0 248.98 248.98"><circle cx="124.49" cy="124.49" r="124.49"/><path d="M94.51,145.93c11.06,0,20.05-8.99,20.05-20.05s-9-20.05-20.05-20.05-20.05,9-20.05,20.05,9,20.05,20.05,20.05ZM94.51,115c6,0,10.88,4.88,10.88,10.88s-4.88,10.88-10.88,10.88-10.88-4.88-10.88-10.88,4.88-10.88,10.88-10.88Z" fill="#fff"/><path d="M177.25,105.8c-11.06,0-20.05,9-20.05,20.05s8.99,20.05,20.05,20.05h20.05v-20.05c0-11.06-8.99-20.05-20.05-20.05ZM188.13,136.73h-10.88c-6,0-10.88-4.88-10.88-10.88s4.88-10.88,10.88-10.88,10.88,4.88,10.88,10.88v10.88Z" fill="#fff"/><path d="M53.67,105.66c-4.01,0-7.74,1.19-10.88,3.23v-10.76h-9.18v47.63h20.05c11.06,0,20.05-8.99,20.05-20.05s-9-20.05-20.05-20.05h0ZM53.67,136.59h-10.88v-10.88c0-6,4.88-10.88,10.88-10.88s10.88,4.88,10.88,10.88-4.88,10.88-10.88,10.88Z" fill="#fff"/><path d="M116.09,98.13v47.63h20.05c11.06,0,20.05-8.99,20.05-20.05s-8.99-20.05-20.05-20.05c-4.01,0-7.74,1.19-10.88,3.23v-10.76h-9.18ZM136.14,114.84c6,0,10.88,4.88,10.88,10.88s-4.88,10.88-10.88,10.88h-10.88v-10.88c0-6,4.88-10.88,10.88-10.88Z" fill="#fff"/><path d="M32.69,176.31c0,11.06,9,20.05,20.05,20.05h19.63v-9.18h-19.63c-6,0-10.88-4.88-10.88-10.88s4.88-10.88,10.88-10.88h19.63v-9.18h-19.63c-11.06,0-20.05,8.99-20.05,20.05Z" fill="#fff"/><path d="M117.98,176.38c0,6-4.88,10.88-10.88,10.88s-10.88-4.88-10.88-10.88v-19.63h-9.18v19.63c0,11.06,9,20.05,20.05,20.05s20.05-8.99,20.05-20.05v-19.63h-9.18v19.63Z" fill="#fff"/><path d="M149.52,156.66c-4.01,0-7.74,1.2-10.88,3.23v-10.76h-9.18v47.63h20.05c11.06,0,20.05-8.99,20.05-20.05s-8.99-20.05-20.05-20.05ZM149.52,187.59h-10.88v-10.88c0-6,4.88-10.88,10.88-10.88s10.88,4.88,10.88,10.88-4.88,10.88-10.88,10.88Z" fill="#fff"/><rect x="75.23" y="148.75" width="9.18" height="47.63" fill="#fff"/><path d="M94.38,94.68c11.06,0,20.05-9,20.05-20.05s-9-20.05-20.05-20.05-20.05,8.99-20.05,20.05,9,20.05,20.05,20.05ZM94.38,63.75c6,0,10.88,4.88,10.88,10.88s-4.88,10.88-10.88,10.88-10.88-4.88-10.88-10.88,4.88-10.88,10.88-10.88Z" fill="#fff"/><path d="M159.16,94.68h20.05v-20.05c0-11.06-8.99-20.05-20.05-20.05s-20.05,8.99-20.05,20.05,8.99,20.05,20.05,20.05ZM159.16,63.75c6,0,10.88,4.88,10.88,10.88v10.88h-10.88c-6,0-10.88-4.88-10.88-10.88s4.88-10.88,10.88-10.88Z" fill="#fff"/><path d="M52.22,94.68h20.05v-47.63h-9.18v10.76c-3.14-2.03-6.87-3.23-10.88-3.23-11.06,0-20.05,8.99-20.05,20.05s8.99,20.05,20.05,20.05ZM52.22,63.75c6,0,10.88,4.88,10.88,10.88v10.88h-10.88c-6,0-10.88-4.88-10.88-10.88s4.88-10.88,10.88-10.88Z" fill="#fff"/><rect x="116.02" y="47.05" width="9.18" height="47.63" fill="#fff"/><rect x="127.89" y="47.05" width="9.18" height="47.63" fill="#fff"/><path d="M200.98,54.58c-11.06,0-20.05,8.99-20.05,20.05v19.82h9.18v-19.82c0-6,4.88-10.88,10.88-10.88h12.16v-9.18h-12.16Z" fill="#fff"/></svg>