<svg width="30" height="30" viewBox="0 0 30 30" fill="none" xmlns="http://www.w3.org/2000/svg">
<g clip-path="url(#clip0_2615_663)">
<path d="M30 15.0899C30.0006 12.2232 29.1798 9.41637 27.6346 7.00171C26.0895 4.58706 23.8847 2.66574 21.2815 1.46526C18.6782 0.264781 15.7855 -0.164585 12.9458 0.228003C10.1061 0.620591 7.43835 1.81869 5.25845 3.68044C3.07856 5.54219 1.47781 7.98961 0.645742 10.7329C-0.186325 13.4762 -0.214858 16.4005 0.56352 19.1595C1.3419 21.9185 2.89459 24.3967 5.03774 26.3007C7.18089 28.2046 9.82475 29.4545 12.6562 29.9024V19.4249H8.84812V15.0899H12.6562V11.7843C12.5743 11.0127 12.663 10.2324 12.9162 9.49887C13.1694 8.76533 13.5808 8.09646 14.1213 7.53966C14.6618 6.98286 15.3182 6.55177 16.0439 6.27693C16.7696 6.0021 17.5469 5.89025 18.3206 5.94932C19.4457 5.9641 20.5681 6.06186 21.6788 6.24182V9.93744H19.7887C19.4668 9.89534 19.1395 9.92617 18.8311 10.0277C18.5226 10.1291 18.241 10.2987 18.0069 10.5237C17.7729 10.7488 17.5924 11.0236 17.4789 11.3278C17.3654 11.632 17.3218 11.9578 17.3512 12.2812V15.0937H21.5119L20.8463 19.4287H17.3438V29.9118C20.8729 29.3535 24.0869 27.5538 26.4072 24.8365C28.7274 22.1193 30.0015 18.663 30 15.0899Z" fill="#F7F7F7"/>
</g>
<defs>
<clipPath id="clip0_2615_663">
<rect width="30" height="30" fill="white"/>
</clipPath>
</defs>
</svg>
