<svg width="30" height="30" viewBox="0 0 30 30" fill="none" xmlns="http://www.w3.org/2000/svg">
<g clip-path="url(#clip0_2615_658)">
<path d="M15 2.70187C19.005 2.70187 19.4794 2.71875 21.0619 2.79C22.0128 2.80143 22.9547 2.97648 23.8463 3.3075C24.4983 3.5484 25.0879 3.93289 25.5712 4.4325C26.0709 4.91586 26.4554 5.50541 26.6962 6.1575C27.0273 7.04905 27.2023 7.99093 27.2137 8.94188C27.285 10.5244 27.3019 11.0044 27.3019 15.0037C27.3019 19.0031 27.285 19.4831 27.2137 21.0656C27.2023 22.0166 27.0273 22.9585 26.6962 23.85C26.4472 24.4971 26.0653 25.0847 25.575 25.575C25.0847 26.0653 24.4971 26.4472 23.85 26.6962C22.9585 27.0273 22.0166 27.2023 21.0656 27.2137C19.4831 27.285 19.0031 27.3019 15.0037 27.3019C11.0044 27.3019 10.5244 27.285 8.94188 27.2137C7.99093 27.2023 7.04905 27.0273 6.1575 26.6962C5.50541 26.4554 4.91586 26.0709 4.4325 25.5712C3.93289 25.0879 3.5484 24.4983 3.3075 23.8463C2.97648 22.9547 2.80143 22.0128 2.79 21.0619C2.71875 19.4794 2.70187 18.9994 2.70187 15C2.70187 11.0006 2.71875 10.5206 2.79 8.93813C2.80143 7.98718 2.97648 7.0453 3.3075 6.15375C3.5484 5.50166 3.93289 4.91211 4.4325 4.42875C4.91586 3.92914 5.50541 3.54465 6.1575 3.30375C7.04905 2.97273 7.99093 2.79768 8.94188 2.78625C10.5244 2.715 11.0044 2.69813 15.0037 2.69813M15 0C10.9256 0 10.4156 0.016875 8.8125 0.09C7.5693 0.115281 6.33937 0.351122 5.175 0.7875C4.17368 1.16355 3.26682 1.75425 2.51813 2.51813C1.75425 3.26682 1.16355 4.17368 0.7875 5.175C0.351122 6.33937 0.115281 7.5693 0.09 8.8125C0.016875 10.4156 0 10.9256 0 15C0 19.0744 0.016875 19.5844 0.09 21.1875C0.115281 22.4307 0.351122 23.6606 0.7875 24.825C1.16355 25.8263 1.75425 26.7332 2.51813 27.4819C3.26682 28.2457 4.17368 28.8365 5.175 29.2125C6.34056 29.6493 7.57178 29.8851 8.81625 29.91C10.4156 29.9831 10.9256 30 15 30C19.0744 30 19.5844 29.9831 21.1875 29.91C22.432 29.8851 23.6632 29.6493 24.8287 29.2125C25.8251 28.8268 26.7301 28.2373 27.4856 27.4818C28.2411 26.7263 28.8305 25.8214 29.2162 24.825C29.653 23.6594 29.8889 22.4282 29.9138 21.1838C29.9869 19.5844 30.0038 19.0744 30.0038 14.9963C30.0038 10.9181 29.9869 10.4119 29.9138 8.80875C29.8868 7.56659 29.6497 6.33797 29.2125 5.175C28.8365 4.17368 28.2457 3.26682 27.4819 2.51813C26.7332 1.75425 25.8263 1.16355 24.825 0.7875C23.6606 0.351122 22.4307 0.115281 21.1875 0.09C19.5844 0.016875 19.0744 0 15 0Z" fill="#F7F7F7"/>
<path d="M15 7.29761C13.4766 7.29761 11.9874 7.74935 10.7207 8.59571C9.45404 9.44207 8.46679 10.645 7.88381 12.0525C7.30082 13.4599 7.14829 15.0087 7.44549 16.5028C7.74269 17.9969 8.47628 19.3694 9.5535 20.4466C10.6307 21.5238 12.0032 22.2574 13.4973 22.5546C14.9914 22.8518 16.5402 22.6993 17.9476 22.1163C19.3551 21.5333 20.558 20.5461 21.4044 19.2794C22.2507 18.0127 22.7025 16.5235 22.7025 15.0001C22.7025 13.9886 22.5033 12.987 22.1162 12.0525C21.7291 11.118 21.1617 10.2689 20.4465 9.55362C19.7312 8.83837 18.8821 8.27101 17.9476 7.88393C17.0131 7.49684 16.0115 7.29761 15 7.29761ZM15 20.0007C14.011 20.0007 13.0441 19.7074 12.2218 19.158C11.3994 18.6085 10.7585 17.8275 10.38 16.9138C10.0015 16 9.9025 14.9946 10.0954 14.0245C10.2884 13.0545 10.7647 12.1635 11.464 11.4641C12.1634 10.7648 13.0544 10.2885 14.0244 10.0956C14.9944 9.90262 15.9999 10.0016 16.9136 10.3801C17.8274 10.7586 18.6084 11.3996 19.1579 12.2219C19.7073 13.0443 20.0006 14.0111 20.0006 15.0001C20.0006 16.3264 19.4738 17.5983 18.536 18.5361C17.5982 19.4739 16.3262 20.0007 15 20.0007Z" fill="#F7F7F7"/>
<path d="M23.0063 8.79385C24.0004 8.79385 24.8063 7.98796 24.8063 6.99385C24.8063 5.99974 24.0004 5.19385 23.0063 5.19385C22.0122 5.19385 21.2063 5.99974 21.2063 6.99385C21.2063 7.98796 22.0122 8.79385 23.0063 8.79385Z" fill="#F7F7F7"/>
</g>
<defs>
<clipPath id="clip0_2615_658">
<rect width="30" height="30" fill="white"/>
</clipPath>
</defs>
</svg>
