<?xml version="1.0" encoding="UTF-8"?>
<svg xmlns="http://www.w3.org/2000/svg" version="1.1" viewBox="0 0 207 206">
  <!-- Generator: Adobe Illustrator 28.6.0, SVG Export Plug-In . SVG Version: 1.2.0 Build 709)  -->
  <g>
    <g id="Layer_1">
      <g>
        <path d="M128.9,78.1c0,0,0-.1,0-.2,0-.1,0-.3,0-.4,0-.1,0-.2-.1-.3,0-.1-.1-.2-.2-.3,0,0-.2-.2-.3-.3,0,0-.2-.1-.3-.2-.1,0-.2-.1-.4-.1,0,0-.1,0-.2,0,0,0-.1,0-.2,0,0,0-.1,0-.2,0h-43.6v-16.3c0-2.6-2.1-4.7-4.7-4.7s-4.7,2.1-4.7,4.7v18.2s0,0,0,.1c0,.2,0,.5,0,.7,0,7.4,5.2,13.5,12.1,15,.8,7.8,7.4,13.9,15.3,13.9s3-.2,4.4-.6c.7,1.8,2.1,3.2,3.8,4-.8,2.2-3,6.4-9.2,6.5-1.1,0-1.9.9-1.9,1.9,0,1,.9,1.9,1.9,1.9s0,0,0,0c8-.1,11.6-5.6,12.8-9.4,4.3-.1,7.7-3.6,7.7-7.9s-2-6.1-4.9-7.3c.4-1.4.6-2.9.6-4.4s0-1.1,0-1.6c6.1-1.2,10.9-6.1,12.1-12.4,0,0,0-.1,0-.2,0,0,0-.1,0-.2ZM77.8,79c0-.2,0-.5,0-.7,0,0,0-.1,0-.2v-18.1c0-.5.4-.9.9-.9s.9.4.9.9v18.2c0,1.1.9,1.9,1.9,1.9h19.5c-.5,5.9-5.5,10.5-11.5,10.5s-11.6-5.2-11.6-11.6ZM90,94.4c5.5-.2,10.2-3.3,12.8-7.7,2.7,2.7,6.3,4.3,10.2,4.5,0,.5,0,.9,0,1.4,0,6.4-5.2,11.6-11.6,11.6s-10.5-4.2-11.4-9.7ZM117.3,104.2c0,2.3-1.9,4.1-4.1,4.1s-3.2-1.1-3.8-2.6c2.2-1.3,4-3.2,5.3-5.4,1.6.6,2.6,2.1,2.6,3.8ZM113.7,87.4c-3.7,0-7.1-1.7-9.3-4.7.2-.9.3-1.7.4-2.6h19.6c-1.7,4.3-5.9,7.3-10.8,7.3Z"/>
        <path d="M87.3,73.5h39.6c.6,0,1.2-.3,1.6-.9.4-.5.4-1.2.2-1.8l-19.8-45.9c-.3-.7-1-1.2-1.8-1.2s-1.4.5-1.8,1.2l-19.8,45.9c-.3.6-.2,1.3.2,1.8.4.5,1,.9,1.6.9ZM107.1,30.5l6.7,15.4h-5.5c-1.1,0-1.9.9-1.9,1.9s.9,1.9,1.9,1.9h7.1l1.8,4.2h-12.5c-1.1,0-1.9.9-1.9,1.9s.9,1.9,1.9,1.9h14.1l1.8,4.2h-10.8c-1.1,0-1.9.9-1.9,1.9s.9,1.9,1.9,1.9h12.5l1.6,3.8h-33.8l16.9-39.2Z"/>
        <path d="M102.9,62h-3.1c-1.1,0-1.9.9-1.9,1.9s.9,1.9,1.9,1.9h3.1c1.1,0,1.9-.9,1.9-1.9s-.9-1.9-1.9-1.9Z"/>
      </g>
      <g>
        <path d="M25.6,168.3c-4.8,0-8.7-1.5-11.5-4.3-2.4-2.5-3.7-5.9-3.7-9.7,0-7.9,5.9-16.1,15.8-16.1s5,1.3,6,2.5c1.3,1.4,2,3.3,2,5.2,0,3.8-2.7,6.6-6.3,6.6s-1.9-.9-1.9-1.9.9-1.9,1.9-1.9c2.4,0,2.5-2.3,2.5-2.8,0-1-.4-1.9-1-2.6-.7-.8-1.8-1.2-3.2-1.2-7.5,0-12,6.2-12,12.3s.9,5.2,2.7,7c2,2,5,3.1,8.7,3.1,9.1,0,12.6-5.4,14-8.6,2.5-6,1.1-13.4-3.5-18-5.7-5.7-7.6-12.6-5.2-18.5,2-4.9,6.8-8,12.1-8s4.9.8,6.5,2.3c1.5,1.4,2.3,3.3,2.3,5.4,0,4.2-3.4,8.7-9.8,8.7s-1.9-.9-1.9-1.9.9-1.9,1.9-1.9c3.9,0,6-2.5,6-4.9s-.4-2-1.1-2.7c-.9-.8-2.2-1.3-3.8-1.3-3.9,0-7.2,2.2-8.6,5.7-1.8,4.4-.2,9.7,4.4,14.3,5.6,5.6,7.4,14.7,4.3,22.2-2.9,7-9.3,11-17.5,11Z"/>
        <path d="M78.7,163.5c-2.4,0-3.6-1.1-4.2-2-2-3.2,1-9,4.1-15,1.5-3,3.4-6.7,3.4-8,0-2.3-1-3.1-2.6-4.2-3.5,8.3-9.4,18.6-13.4,18.6s-2.7-.6-3.5-1.8c-1.1-1.6-1.2-4.3-.8-7.4-2.6,3.3-5.5,5.8-8.6,5.8s-3.1-.7-3.9-2.1c-2.7-4.5,2.6-15.3,4.3-18.5.5-.9,1.6-1.3,2.6-.8.9.5,1.3,1.6.8,2.6-3,5.7-5.5,12.9-4.4,14.7,0,0,.1.2.6.2,4.1,0,10.3-10.9,13.4-18.6,0,0,0,0,0-.1.4-1,1.5-1.5,2.5-1.1,1,.4,1.5,1.5,1.1,2.5,0,0,0,0,0,.1-3.3,8.2-5.8,18.4-4.3,20.6,0,0,0,.1.3.1,2-.7,7.3-9.9,10.3-17.1-1.6-1.5-3-3.7-3-7.5s2.3-5.6,4.5-5.6,4.6,2,4.6,5.8-.6,3.3-1.5,6c0,0,0,0,0,0,2.2,1.4,4.9,3.2,4.9,7.8s-1.5,5.1-3.8,9.8c-1.6,3.2-5.1,9.9-4.2,11.3,0,0,.2.2.9.2,2.9,0,12.4-12.8,17-21.5-1.3-1.3-2.4-3.2-2.4-6.3s2.3-5.9,4.5-5.9,2.4.6,3.2,1.7c.7,1,1.1,2.3,1.1,3.8s-.6,3.1-1.6,5.5c1.8,1.2,4.1,2.9,4.1,7s-1.2,4.3-2.3,6.4c-.4.8-1,1.9-1.3,2.7,1.5-.5,3.7-3.2,5.4-5.3,1.8-2.2,3.5-4.4,5.4-5.6,0-3.2,1.1-6.4,3.2-8.5,1.9-1.9,5.1-3.5,7.5-2.5,1.5.6,2.3,2,2.3,3.8,0,4.4-3.6,9.2-8.8,9.9,0,.2.1.4.2.5.6,1.5,1.9,3.2,4.4,3.2,4.7,0,13.7-8.6,18.2-14,.7-.8,1.9-.9,2.7-.2.8.7.9,1.9.2,2.7-1.3,1.6-13.1,15.3-21.1,15.3s-6.5-2-7.9-5.5c0-.1-.1-.3-.2-.4-1.1,1.1-2.2,2.5-3.2,3.7-2.8,3.5-5.4,6.8-8.8,6.8s-2.7-.8-3.2-1.5c-1.1-1.9,0-4.2,1.5-6.8.8-1.6,1.9-3.6,1.9-4.6,0-1.9-.7-2.7-2-3.5-5.1,9.8-15,23.1-20,23.1ZM120.8,134.5c-.4,0-1.9.4-3.2,1.7s-1.9,2.9-2,4.7c3.1-.4,5.4-3.4,5.4-6.1s0-.4,0-.4c0,0,0,0,0,0ZM97.7,129.7c-.1,0-.6.7-.6,2.1s.1,1.8.4,2.4c.4-1.2.7-2.1.7-2.8,0-1.2-.4-1.7-.5-1.7ZM77.8,122.8c-.2,0-.7.5-.7,1.8s.3,2.6.7,3.4c.4-1.4.7-2.5.7-3.3,0-1.4-.5-2-.8-2Z"/>
        <path d="M169.2,169.5c-.9,0-1.6-.3-2.3-1-3.7-3.7-3.6-10.3-1.9-17.1-2.7,2.7-5.8,4.7-9.4,4.7s-3.5-.8-4.5-2.3c-1.7-2.5-1.5-6.9-.6-11.5-5.2,8.4-10.8,15.7-14.2,15.7s-2.9-.7-3.7-1.9c-.6-1-1-2.2-1-3.8,0-7.5,8.4-24.3,16.3-24.3s4.1.7,5.3,2c.8-1.5,1.7-3,2.5-4.6.5-.9,1.6-1.3,2.5-.8.9.4,1.3,1.5.9,2.5-3.4,8.2-7.2,21.2-4.9,24.6.2.3.5.6,1.4.6,5.1,0,9.8-7.1,13.1-12.3,0,0,0-.1.1-.2,5.4-12.8,16.4-31.3,21.8-31.3s2.6.4,3.5,1.1c.6.5,1.3,1.5,1.3,3.2,0,4.3-5.3,11.1-8.5,14.7-1.9,2.2-8.2,9.1-11.3,9.5-.7.5-2.3,2.8-3.5,4.7-1.3,3.1-2.3,6.1-3.2,9.1-1.9,7.1-1.8,12.3.3,14.7,2.9-1.4,10.6-15.6,16.1-28.5.4-1,1.5-1.4,2.5-1,1,.4,1.4,1.5,1,2.5-3.8,8.9-13.4,29.7-19.2,30.8-.2,0-.4,0-.7,0ZM147.9,131.9c-4.7,0-12.5,14-12.5,20.5s.2,1.5.3,1.7c0,0,.1.2.5.2,1.8-.4,7.6-8,14.7-20.3,0-.3-.1-.9-.6-1.4-.5-.5-1.3-.8-2.5-.8ZM175.5,137.1h0,0ZM190.7,112.5c-2,.5-8.5,9.3-14.2,20.1,3.6-2.7,12.1-11.6,14.6-17.6.8-1.8.5-2.4.5-2.4h0s-.3-.1-1-.1Z"/>
      </g>
    </g>
  </g>
</svg>