<?xml version="1.0" encoding="UTF-8"?>
<svg id="Layer_1" xmlns="http://www.w3.org/2000/svg" version="1.1" viewBox="0 0 257.8 257.1">
  <!-- Generator: Adobe Illustrator 29.0.1, SVG Export Plug-In . SVG Version: 2.1.0 Build 192)  -->
  <defs>
    <style>
      .st0 {
        fill: #fff;
      }
    </style>
  </defs>
  <circle cx="128" cy="128.9" r="124.5"/>
  <g>
    <path class="st0" d="M98,150.3c11.1,0,20.1-9,20.1-20.1s-9-20.1-20.1-20.1-20.1,9-20.1,20.1,9,20.1,20.1,20.1ZM98,119.4c6,0,10.9,4.9,10.9,10.9s-4.9,10.9-10.9,10.9-10.9-4.9-10.9-10.9,4.9-10.9,10.9-10.9Z"/>
    <path class="st0" d="M180.8,110.2c-11.1,0-20.1,9-20.1,20.1s9,20.1,20.1,20.1h20.1v-20.1c0-11.1-9-20.1-20.1-20.1ZM191.6,141.1h-10.9c-6,0-10.9-4.9-10.9-10.9s4.9-10.9,10.9-10.9,10.9,4.9,10.9,10.9v10.9Z"/>
    <path class="st0" d="M57.2,110.1c-4,0-7.7,1.2-10.9,3.2v-10.8h-9.2v47.6h20.1c11.1,0,20.1-9,20.1-20.1s-9-20.1-20.1-20.1h0ZM57.2,141h-10.9v-10.9c0-6,4.9-10.9,10.9-10.9s10.9,4.9,10.9,10.9-4.9,10.9-10.9,10.9Z"/>
    <path class="st0" d="M119.6,102.5v47.6h20.1c11.1,0,20.1-9,20.1-20.1s-9-20.1-20.1-20.1-7.7,1.2-10.9,3.2v-10.8h-9.2ZM139.6,119.2c6,0,10.9,4.9,10.9,10.9s-4.9,10.9-10.9,10.9h-10.9v-10.9c0-6,4.9-10.9,10.9-10.9Z"/>
    <path class="st0" d="M36.2,180.7c0,11.1,9,20.1,20.1,20.1h19.6v-9.2h-19.6c-6,0-10.9-4.9-10.9-10.9s4.9-10.9,10.9-10.9h19.6v-9.2h-19.6c-11.1,0-20.1,9-20.1,20.1Z"/>
    <path class="st0" d="M121.5,180.8c0,6-4.9,10.9-10.9,10.9s-10.9-4.9-10.9-10.9v-19.6h-9.2v19.6c0,11.1,9,20.1,20.1,20.1s20.1-9,20.1-20.1v-19.6h-9.2v19.6Z"/>
    <path class="st0" d="M153,161.1c-4,0-7.7,1.2-10.9,3.2v-10.8h-9.2v47.6h20.1c11.1,0,20.1-9,20.1-20.1s-9-20.1-20.1-20.1ZM153,192h-10.9v-10.9c0-6,4.9-10.9,10.9-10.9s10.9,4.9,10.9,10.9-4.9,10.9-10.9,10.9Z"/>
    <rect class="st0" x="78.7" y="153.1" width="9.2" height="47.6"/>
    <path class="st0" d="M97.9,99.1c11.1,0,20.1-9,20.1-20.1s-9-20.1-20.1-20.1-20.1,9-20.1,20.1,9,20.1,20.1,20.1ZM97.9,68.2c6,0,10.9,4.9,10.9,10.9s-4.9,10.9-10.9,10.9-10.9-4.9-10.9-10.9,4.9-10.9,10.9-10.9Z"/>
    <path class="st0" d="M162.7,99.1h20.1v-20.1c0-11.1-9-20.1-20.1-20.1s-20.1,9-20.1,20.1,9,20.1,20.1,20.1ZM162.7,68.2c6,0,10.9,4.9,10.9,10.9v10.9h-10.9c-6,0-10.9-4.9-10.9-10.9s4.9-10.9,10.9-10.9Z"/>
    <path class="st0" d="M55.7,99.1h20.1v-47.6h-9.2v10.8c-3.1-2-6.9-3.2-10.9-3.2-11.1,0-20.1,9-20.1,20.1s9,20.1,20.1,20.1ZM55.7,68.2c6,0,10.9,4.9,10.9,10.9v10.9h-10.9c-6,0-10.9-4.9-10.9-10.9s4.9-10.9,10.9-10.9Z"/>
    <rect class="st0" x="119.5" y="51.4" width="9.2" height="47.6"/>
    <rect class="st0" x="131.4" y="51.4" width="9.2" height="47.6"/>
    <path class="st0" d="M204.5,59c-11.1,0-20.1,9-20.1,20.1v19.8h9.2v-19.8c0-6,4.9-10.9,10.9-10.9h12.2v-9.2h-12.2Z"/>
  </g>
</svg>