<?xml version="1.0" encoding="UTF-8"?>
<svg id="Layer_1" xmlns="http://www.w3.org/2000/svg" version="1.1" viewBox="0 0 1227 308.9">
  <!-- Generator: Adobe Illustrator 30.1.0, SVG Export Plug-In . SVG Version: 2.1.1 Build 136)  -->
  <g>
    <path d="M685,190.7c-6.5,6.4-14.3,8.9-23,8.9-22.6,0-31.3-14.2-31.4-29.8,0-14.8,9.8-30.4,31.4-30.4s15.7,2.9,22.2,9.2l-10,9.8c-4.1-3.9-8.4-5-12.2-5-11.1,0-15.4,9-15.3,16.5,0,7.5,4,15.9,15.3,15.9s9.4-1.6,13.5-5.8l9.5,10.7Z"/>
    <path d="M753,198.2h-17.9l-13.4-18.6h-5.7v18.6h-16.2v-57.4h28c14.7,0,22.3,9.4,22.3,19.8s-2.5,13-12.1,17.3l14.9,19.4v1ZM716.1,153.8v13.8h12c4.3,0,6.2-3.2,6.2-6.6s-2.1-7.1-6.3-7.1h-11.8Z"/>
    <path d="M814.4,198.2h-45.9v-57.4h44.8v13.6h-28.8v8.2h27.1v13.2h-27.1v8.7h29.9v13.7Z"/>
    <path d="M871.3,188.8h-25.7l-3.8,9.4h-17.2l25.7-57.4h16.4l25.7,57.4h-17.4l-3.8-9.4ZM858.6,156.9l-7.4,18.3h14.7l-7.3-18.3Z"/>
    <path d="M953.2,164l-14.7,17.4h-2.9l-14.4-17.3v34.1h-16.1v-57.4h17l15.1,19.4,15.1-19.4h16.9v57.4h-16.1v-34.2Z"/>
    <path d="M1035,198.2h-45.9v-57.4h44.8v13.6h-28.8v8.2h27.1v13.2h-27.1v8.7h29.9v13.7Z"/>
    <path d="M1105.5,198.2h-17.9l-13.4-18.6h-5.7v18.6h-16.2v-57.4h28c14.7,0,22.3,9.4,22.3,19.8s-2.5,13-12.1,17.3l14.9,19.4v1ZM1068.6,153.8v13.8h12c4.3,0,6.2-3.2,6.2-6.6s-2.1-7.1-6.3-7.1h-11.8Z"/>
    <path d="M1141.4,160.5l12.4-19.7h18.3v.7l-22.8,33.8v22.9h-16.2v-22.9l-21.8-33.9v-.7h18.3l11.9,19.7Z"/>
  </g>
  <g>
    <path d="M94.9,236.9c-14.7,0-26.9-4.6-35.3-13.2-7.4-7.6-11.5-18.2-11.5-29.7,0-24.3,18.2-49.5,48.7-49.5s15.2,4.1,18.4,7.5c3.9,4.3,6.2,10.1,6.2,16,0,11.8-8.2,20.4-19.5,20.4s-5.9-2.6-5.9-5.9,2.6-5.9,5.9-5.9c7.4,0,7.7-7.2,7.7-8.7,0-3-1.1-6-3.1-8.1-2.3-2.5-5.6-3.8-9.8-3.8-23.1,0-36.9,19.2-36.9,37.7s2.9,16.1,8.2,21.6c6.1,6.3,15.4,9.6,26.9,9.6,27.9,0,38.9-16.6,43-26.5,7.7-18.6,3.2-41.3-10.8-55.4-17.5-17.5-23.5-38.7-16-56.8,6.2-15,20.9-24.6,37.3-24.6s15,2.5,19.9,7.1c4.5,4.3,7,10.2,7,16.6,0,13-10.6,26.7-30.1,26.7s-5.9-2.6-5.9-5.9,2.6-5.9,5.9-5.9c12.1,0,18.4-7.5,18.4-15s-1.2-6.1-3.4-8.2c-2.7-2.5-6.7-3.9-11.8-3.9-11.9,0-22.1,6.7-26.5,17.4-5.6,13.5-.6,30,13.4,44,17.3,17.3,22.8,45.4,13.4,68.2-8.9,21.4-28.5,33.7-53.8,33.7Z"/>
    <path d="M258,222.3c-7.5,0-11.1-3.3-12.8-6.1-6.1-10,3-27.6,12.5-46.2,4.7-9.1,10.5-20.5,10.5-24.7,0-6.9-2.9-9.6-7.9-12.9-10.8,25.7-29,57.3-41.3,57.3s-8.3-2-10.7-5.6c-3.4-5-3.7-13.4-2.5-22.8-7.9,10.1-17,17.8-26.5,17.8s-9.6-2.2-12-6.3c-8.3-13.8,8.1-47,13.4-56.8,1.5-2.9,5.1-3.9,7.9-2.4,2.9,1.5,3.9,5.1,2.4,7.9-9.3,17.4-17,39.8-13.7,45.3.1.2.4.6,2,.6,12.6,0,31.6-33.4,41.2-57.3,0-.2.1-.3.2-.4,1.2-3,4.6-4.5,7.6-3.3,3,1.2,4.5,4.6,3.3,7.6h0c0,.2-.1.3-.2.4-10,25.2-18,56.5-13.4,63.2.2.3.3.4,1,.4,6-2,22.4-30.5,31.7-52.5-5-4.6-9.2-11.3-9.2-23s6.9-17.4,13.8-17.4,14.1,6.1,14.1,17.8-1.7,10.2-4.7,18.4c0,0,.1,0,.2.1,6.7,4.4,15.1,9.8,15.1,23.9s-4.5,15.7-11.8,30c-5.1,9.9-15.6,30.4-13,34.7,0,.1.8.5,2.8.5,8.8,0,38.2-39.4,52.4-66.2-4.1-3.9-7.4-9.7-7.4-19.5s7-18.2,13.8-18.2,7.3,1.9,9.7,5.2c2.2,3,3.3,7.1,3.3,11.8s-1.9,9.7-5,16.8c5.6,3.6,12.7,8.8,12.7,21.5s-3.6,13.1-7.1,19.7c-1.3,2.5-3.1,5.9-4,8.3,4.6-1.4,11.4-10,16.5-16.3,5.5-6.9,10.8-13.5,16.6-17.3,0-9.9,3.4-19.6,9.9-26.2,5.9-5.9,15.6-10.7,23.2-7.6,4.5,1.9,7.1,6.1,7.1,11.7,0,13.5-10.9,28.4-27.1,30.4.2.6.4,1.1.6,1.6,1.9,4.5,5.7,9.8,13.6,9.8,14.6,0,42.1-26.4,56-43,2.1-2.5,5.8-2.8,8.3-.7,2.5,2.1,2.8,5.8.7,8.3-4,4.8-40.2,47.2-65,47.2s-20-6.2-24.4-17.1c-.2-.4-.3-.9-.5-1.3-3.3,3.3-6.8,7.7-9.8,11.4-8.6,10.8-16.7,21-27,21s-8.4-2.5-9.7-4.6c-3.4-5.7.3-12.8,4.6-21,2.6-4.9,5.8-11,5.8-14.3,0-6-2.1-8.2-6.1-10.8-15.8,30.2-46,71.2-61.6,71.2ZM387.6,133.1c-1.2,0-5.8,1.3-9.9,5.3-3.5,3.5-5.7,8.9-6.3,14.6,9.6-1.3,16.5-10.5,16.5-18.7s-.2-1.2-.2-1.2c0,0-.1,0-.2,0ZM316.7,118.3c-.3.2-2,2.1-2,6.6s.5,5.6,1.3,7.5c1.3-3.6,2.1-6.5,2.1-8.7,0-3.8-1.2-5.2-1.4-5.4ZM255.4,96.9c-.6,0-2,1.6-2,5.6s.8,8,2.3,10.5c1.4-4.2,2.1-7.7,2.1-10.1,0-4.3-1.7-6.1-2.4-6.1Z"/>
    <path d="M536.6,240.7c-2.6,0-5.1-1-7-3-11.4-11.4-11-31.6-6-52.5-8.3,8.4-17.8,14.6-28.8,14.6s-10.8-2.5-13.9-7.2c-5.1-7.7-4.7-21.2-2-35.4-16.1,25.7-33.2,48.4-43.6,48.4s-8.8-2-11.3-5.8c-2-2.9-3-6.9-3-11.7,0-22.9,25.7-74.9,50.2-74.9s12.6,2.1,16.4,6.2c2.5-4.5,5.1-9.2,7.7-14.1,1.5-2.7,4.9-3.8,7.7-2.5,2.8,1.3,4.1,4.7,2.9,7.6-10.5,25.2-22.1,65.3-15.2,75.7.7,1,1.6,1.9,4.2,1.9,15.8,0,30-21.9,40.4-37.8.1-.2.3-.4.4-.6,16.5-39.5,50.5-96.1,67-96.1s8.1,1.1,10.7,3.4c1.9,1.6,4.1,4.6,4.1,9.7,0,13.3-16.4,34-26.1,45.2-5.8,6.7-25.2,28.1-34.8,29.2-2.2,1.4-6.9,8.5-10.7,14.3-3.9,9.4-7.2,18.9-9.7,28.1-5.9,21.7-5.5,37.7,1,45.3,9-4.4,32.5-48.1,49.6-87.7,1.3-3,4.7-4.3,7.7-3.1,3,1.3,4.3,4.7,3.1,7.7-11.8,27.4-41.2,91.5-59,94.9-.7.1-1.4.2-2,.2ZM471.1,125c-14.3,0-38.4,43.1-38.4,63.2s.7,4.7,1,5.2c.2.3.4.6,1.6.6,5.4-1.2,23.3-24.7,45.3-62.4,0-1.1-.4-2.8-1.7-4.2-1.5-1.6-4.1-2.4-7.8-2.4ZM555.9,141.1h0,0ZM556.8,140.9,602.6,65.3c-6,1.6-26.2,28.6-43.5,61.8,11.1-8.2,37.1-35.6,44.9-54,2.3-5.5,1.7-7.3,1.6-7.4h0s-.8-.4-3-.4Z"/>
  </g>
</svg>