<?xml version="1.0" encoding="UTF-8"?>
<svg id="Layer_1" xmlns="http://www.w3.org/2000/svg" version="1.1" viewBox="0 0 207 206">
  <!-- Generator: Adobe Illustrator 30.1.0, SVG Export Plug-In . SVG Version: 2.1.1 Build 136)  -->
  <path d="M149.9,112.6v-1.1s0-.4-.2-.5c0,0-.2-.4-.4-.5l-.5-.5s-.4,0-.5-.4h-79v-28.9c0-4.6-3.7-8.3-8.3-8.3s-8.3,3.7-8.3,8.3v32.2h0v1.4c0,13.1,9.2,23.9,21.4,26.6,1.4,13.8,13.1,24.6,27.1,24.6s5.3-.4,7.8-1.1c1.2,3.2,3.7,5.7,6.7,7.1-1.4,3.9-5.3,11.3-16.3,11.5-1.9,0-3.4,1.6-3.4,3.4s1.6,3.4,3.4,3.4,0,0,0,0c14.2,0,20.5-9.9,22.7-16.7,7.6,0,13.6-6.4,13.6-14s-3.5-10.8-8.7-12.9c.7-2.5,1.1-5.1,1.1-7.8v-2.8c10.8-2.1,19.3-10.8,21.4-22v-.7h.4v-.4h0ZM59.4,114.2v-33.7c0-.9.7-1.6,1.6-1.6s1.6.7,1.6,1.6v32.2c0,1.9,1.6,3.4,3.4,3.4h34.5c-.9,10.5-9.7,18.6-20.4,18.6s-20.5-9.2-20.5-20.5h-.2ZM81,141.4c9.7-.4,18.1-5.8,22.7-13.6,4.8,4.8,11.2,7.6,18.1,8v2.5c0,11.3-9.2,20.5-20.5,20.5s-18.6-7.4-20.2-17.2h0v-.2ZM129.4,158.8c0,4.1-3.4,7.3-7.3,7.3s-5.7-1.9-6.7-4.6c3.9-2.3,7.1-5.7,9.4-9.6,2.8,1.1,4.6,3.7,4.6,6.7h0v.2ZM123,129c-6.6,0-12.6-3-16.5-8.3.4-1.6.5-3,.7-4.6h34.7c-3,7.6-10.5,12.9-19.1,12.9h.2Z"/>
  <path d="M76.2,104.4h70.2c1.1,0,2.1-.5,2.8-1.6.7-.9.7-2.1.4-3.2L114.5,18.3c-.5-1.2-1.8-2.1-3.2-2.1s-2.5.9-3.2,2.1l-35.1,81.3c-.5,1.1-.4,2.3.4,3.2.7.9,1.8,1.6,2.8,1.6h0ZM111.3,28.2l11.9,27.3h-9.7c-1.9,0-3.4,1.6-3.4,3.4s1.6,3.4,3.4,3.4h12.6l3.2,7.4h-22.1c-1.9,0-3.4,1.6-3.4,3.4s1.6,3.4,3.4,3.4h25l3.2,7.4h-19.1c-1.9,0-3.4,1.6-3.4,3.4s1.6,3.4,3.4,3.4h22.1l2.8,6.7h-59.9l29.9-69.4v.4s.2,0,.2,0Z"/>
  <path d="M103.9,84h-5.5c-1.9,0-3.4,1.6-3.4,3.4s1.6,3.4,3.4,3.4h5.5c1.9,0,3.4-1.6,3.4-3.4s-1.6-3.4-3.4-3.4Z"/>
</svg>